<svg width="45" height="47" viewBox="0 0 45 47" fill="none" xmlns="http://www.w3.org/2000/svg">
<path d="M39.374 12.8237C39.3603 12.6324 39.207 12.4844 39.0235 12.4844H32.6953V10.6484C32.6953 4.77674 28.1215 0 22.5 0C16.8785 0 12.3047 4.77674 12.3047 10.6484V12.4844H5.97658C5.79306 12.4844 5.63978 12.6324 5.62607 12.8237L3.16513 46.6049C3.15775 46.7066 3.19115 46.8072 3.25794 46.8821C3.32439 46.9574 3.4179 47 3.51564 47H41.4844C41.5821 47 41.6756 46.9574 41.7421 46.8825C41.8085 46.8076 41.8423 46.707 41.8349 46.6053L39.374 12.8237ZM15.1172 10.6484C15.1172 6.39677 18.4289 2.9375 22.5 2.9375C26.5711 2.9375 29.8828 6.39677 29.8828 10.6484V12.4844H15.1172V10.6484ZM13.711 22.7656C11.7721 22.7656 10.1953 21.1184 10.1953 19.0938C10.1953 17.6283 10.8985 16.3079 12.3047 15.7285V19.0938C12.3047 19.9038 12.9358 20.5625 13.711 20.5625C14.4861 20.5625 15.1172 19.9038 15.1172 19.0938V15.7307C16.5235 16.3101 17.2266 17.6404 17.2266 19.0938C17.2266 21.1184 15.6498 22.7656 13.711 22.7656ZM31.2891 22.7656C29.3502 22.7656 27.7735 21.1184 27.7735 19.0938C27.7735 17.6283 28.4766 16.3079 29.8828 15.7285V19.0938C29.8828 19.9038 30.5139 20.5625 31.2891 20.5625C32.0643 20.5625 32.6953 19.9038 32.6953 19.0938V15.7307C34.1016 16.3101 34.8047 17.6404 34.8047 19.0938C34.8047 21.1184 33.2279 22.7656 31.2891 22.7656Z" fill="white"/>
</svg>
