<svg width="30" height="30" viewBox="0 0 30 30" fill="none" xmlns="http://www.w3.org/2000/svg">
<path d="M27 14.025L21.25 9.4V6.25C21.2806 5.61868 21.0596 5.00098 20.6355 4.53233C20.2114 4.06369 19.6187 3.78235 18.9875 3.75H4.7375C4.11071 3.7887 3.52441 4.07279 3.1056 4.54073C2.6868 5.00867 2.46922 5.62277 2.5 6.25V18.75C2.4884 19.2464 2.62487 19.735 2.89202 20.1535C3.15916 20.572 3.54488 20.9015 4 21.1C3.7698 21.6632 3.68008 22.2739 3.73859 22.8795C3.7971 23.4851 4.00208 24.0674 4.33584 24.5761C4.66961 25.0848 5.12214 25.5046 5.65438 25.7994C6.18662 26.0942 6.78259 26.255 7.39087 26.268C7.99915 26.2811 8.60146 26.1459 9.14584 25.8742C9.69022 25.6025 10.1603 25.2024 10.5156 24.7085C10.8708 24.2146 11.1006 23.6416 11.185 23.0391C11.2693 22.4365 11.2059 21.8225 11 21.25H18.95C18.7444 21.8164 18.6784 22.424 18.7574 23.0214C18.8365 23.6187 19.0583 24.1883 19.4042 24.6817C19.75 25.1751 20.2096 25.578 20.7442 25.8561C21.2787 26.1342 21.8724 26.2794 22.475 26.2794C23.0776 26.2794 23.6713 26.1342 24.2058 25.8561C24.7404 25.578 25.2 25.1751 25.5459 24.6817C25.8917 24.1883 26.1135 23.6187 26.1926 23.0214C26.2716 22.424 26.2056 21.8164 26 21.25H26.25C26.5815 21.25 26.8995 21.1183 27.1339 20.8839C27.3683 20.6495 27.5 20.3315 27.5 20V15C27.4962 14.8102 27.4492 14.6237 27.3625 14.4548C27.2759 14.2859 27.1519 14.1389 27 14.025V14.025ZM25 15.6V18.75H21.25V12.6L25 15.6ZM8.75 22.5C8.75 22.7472 8.67669 22.9889 8.53934 23.1945C8.40199 23.4 8.20677 23.5602 7.97836 23.6548C7.74995 23.7495 7.49862 23.7742 7.25614 23.726C7.01367 23.6778 6.79094 23.5587 6.61612 23.3839C6.44131 23.2091 6.32225 22.9863 6.27402 22.7439C6.22579 22.5014 6.25055 22.2501 6.34516 22.0216C6.43976 21.7932 6.59998 21.598 6.80554 21.4607C7.0111 21.3233 7.25278 21.25 7.5 21.25C7.83152 21.25 8.14947 21.3817 8.38389 21.6161C8.61831 21.8505 8.75 22.1685 8.75 22.5ZM15 18.75H5V6.25H18.75V18.75H15ZM23.75 22.5C23.75 22.7472 23.6767 22.9889 23.5393 23.1945C23.402 23.4 23.2068 23.5602 22.9784 23.6548C22.75 23.7495 22.4986 23.7742 22.2561 23.726C22.0137 23.6778 21.7909 23.5587 21.6161 23.3839C21.4413 23.2091 21.3223 22.9863 21.274 22.7439C21.2258 22.5014 21.2505 22.2501 21.3452 22.0216C21.4398 21.7932 21.6 21.598 21.8055 21.4607C22.0111 21.3233 22.2528 21.25 22.5 21.25C22.8315 21.25 23.1495 21.3817 23.3839 21.6161C23.6183 21.8505 23.75 22.1685 23.75 22.5Z" fill="white"/>
</svg>
