<svg width="30" height="30" viewBox="0 0 30 30" fill="none" xmlns="http://www.w3.org/2000/svg">
<path d="M22.5 3.75H7.5C6.50544 3.75 5.55161 4.14509 4.84835 4.84835C4.14509 5.55161 3.75 6.50544 3.75 7.5V22.5C3.75 23.4946 4.14509 24.4484 4.84835 25.1517C5.55161 25.8549 6.50544 26.25 7.5 26.25H22.5C23.4946 26.25 24.4484 25.8549 25.1517 25.1517C25.8549 24.4484 26.25 23.4946 26.25 22.5V7.5C26.25 6.50544 25.8549 5.55161 25.1517 4.84835C24.4484 4.14509 23.4946 3.75 22.5 3.75ZM7.5 6.25H22.5C22.8315 6.25 23.1495 6.3817 23.3839 6.61612C23.6183 6.85054 23.75 7.16848 23.75 7.5V17.95L19.75 14.5375C19.1302 14.0276 18.3526 13.7487 17.55 13.7487C16.7474 13.7487 15.9698 14.0276 15.35 14.5375L6.25 22.125V7.5C6.25 7.16848 6.3817 6.85054 6.61612 6.61612C6.85054 6.3817 7.16848 6.25 7.5 6.25V6.25ZM22.5 23.75H8.2L16.95 16.45C17.1181 16.3252 17.3219 16.2578 17.5312 16.2578C17.7406 16.2578 17.9444 16.3252 18.1125 16.45L23.75 21.25V22.5C23.75 22.8315 23.6183 23.1495 23.3839 23.3839C23.1495 23.6183 22.8315 23.75 22.5 23.75Z" fill="white"/>
<path d="M10 12.5C11.0355 12.5 11.875 11.6605 11.875 10.625C11.875 9.58947 11.0355 8.75 10 8.75C8.96447 8.75 8.125 9.58947 8.125 10.625C8.125 11.6605 8.96447 12.5 10 12.5Z" fill="white"/>
</svg>
